<svg xmlns="http://www.w3.org/2000/svg" width="60" height="60" viewBox="0 0 60 60">
  <g id="グループ_1736" data-name="グループ 1736" transform="translate(-183 -542)">
    <rect id="長方形_2933" data-name="長方形 2933" width="60" height="60" transform="translate(183 542)" fill="#d9d9d9"/>
    <path id="パス_941" data-name="パス 941" d="M1-4.88A8.978,8.978,0,0,0,.36-2.36,2.8,2.8,0,0,0,3.4.52C4.96.52,5.88,0,6.32-1.28l1.72-4.8H18.6l1.68,4.8A2.809,2.809,0,0,0,23.24.52a2.992,2.992,0,0,0,3.08-2.88,8.978,8.978,0,0,0-.64-2.52L17.76-26.92a3.241,3.241,0,0,0-3.52-2.4H12.68a2.966,2.966,0,0,0-3.2,2Zm16.16-5.76H9.48L13.36-22.2h.08Z" transform="translate(199.639 586.32)" fill="#555"/>
  </g>
</svg>
