<svg xmlns="http://www.w3.org/2000/svg" width="244.001" height="36.001" viewBox="0 0 244.001 36.001"><g transform="translate(-340 -87)"><g transform="translate(-133.307 -407.427)"><g transform="translate(0 30)"><path d="M493.66,484.583H481.033a.834.834,0,0,0-.813.849v7.51a.836.836,0,0,0,.813.851h13.981a.814.814,0,0,1,.805.971l-.565,4.022a.851.851,0,0,1-.805.725H474.519a.834.834,0,0,1-.813-.849V466.147a.834.834,0,0,1,.813-.849h19.738a.833.833,0,0,1,.813.849v4.066a.833.833,0,0,1-.813.849H481.033a.835.835,0,0,0-.813.849v6.053a.836.836,0,0,0,.813.851H493.66a.834.834,0,0,1,.813.849v4.07A.836.836,0,0,1,493.66,484.583Z" fill="#24b4cf"/><path d="M494.449,499.929H474.519a1.242,1.242,0,0,1-1.212-1.267V466.147a1.24,1.24,0,0,1,1.212-1.265h19.738a1.24,1.24,0,0,1,1.212,1.265v4.066a1.24,1.24,0,0,1-1.212,1.265H481.035a.426.426,0,0,0-.417.435v6.051a.426.426,0,0,0,.417.435H493.66a1.24,1.24,0,0,1,1.212,1.265v4.07A1.242,1.242,0,0,1,493.66,485H481.035a.425.425,0,0,0-.417.433v7.51a.426.426,0,0,0,.417.435h13.979a1.189,1.189,0,0,1,.926.431,1.313,1.313,0,0,1,.274,1.018l-.565,4.02A1.253,1.253,0,0,1,494.449,499.929Zm-19.931-34.214a.425.425,0,0,0-.415.433v32.515a.424.424,0,0,0,.415.433h19.931a.452.452,0,0,0,.411-.368l.565-4.022a.447.447,0,0,0-.087-.354.409.409,0,0,0-.323-.141H481.035a1.241,1.241,0,0,1-1.214-1.267v-7.51a1.241,1.241,0,0,1,1.214-1.265H493.66a.426.426,0,0,0,.415-.435v-4.07a.424.424,0,0,0-.415-.433H481.035a1.243,1.243,0,0,1-1.214-1.267v-6.051a1.243,1.243,0,0,1,1.214-1.267h13.222a.425.425,0,0,0,.415-.433v-4.066a.425.425,0,0,0-.415-.433Z" fill="#24b4cf"/><path d="M509.583,498.923l-10.04-32.515a.794.794,0,0,1,.774-1.11h5.443a.873.873,0,0,1,.782.611l4.18,14.942c1.286,4.546,2.488,8.887,3.091,12.114h.1c.67-3.043,1.988-7.67,3.247-11.944L521.6,465.9a.87.87,0,0,1,.778-.6h5.1a.794.794,0,0,1,.772,1.116l-10.335,32.515a.873.873,0,0,1-.772.582h-6.788A.877.877,0,0,1,509.583,498.923Z" fill="#24b4cf"/><path d="M517.147,499.929h-6.788a1.266,1.266,0,0,1-1.155-.878h0l-10.04-32.515a1.327,1.327,0,0,1,.143-1.157,1.2,1.2,0,0,1,1.012-.5h5.441a1.276,1.276,0,0,1,1.164.911l4.18,14.942c1.091,3.861,2.123,7.581,2.779,10.58.788-3.209,1.994-7.38,2.89-10.417l4.446-15.122a1.279,1.279,0,0,1,1.158-.894h5.1a1.2,1.2,0,0,1,1.014.5,1.321,1.321,0,0,1,.137,1.163L518.3,499.061A1.267,1.267,0,0,1,517.147,499.929Zm-7.183-1.134a.48.48,0,0,0,.395.3h6.788a.479.479,0,0,0,.393-.3l10.335-32.515a.471.471,0,0,0-.024-.414.434.434,0,0,0-.369-.155h-5.1a.477.477,0,0,0-.4.306l-4.445,15.122c-1.045,3.546-2.517,8.641-3.24,11.915l-.069.323h-.742l-.063-.335c-.593-3.182-1.8-7.527-3.081-12.077l-4.182-14.944a.47.47,0,0,0-.4-.311h-5.441a.425.425,0,0,0-.367.155.474.474,0,0,0-.03.41Z" fill="#24b4cf"/><path d="M559.236,482.244c0,9.847-4.559,17.766-14.888,17.766-10.113,0-14.436-8.119-14.436-17.842,0-8.427,4.42-17.325,14.9-17.325C554.721,464.843,559.236,473.038,559.236,482.244Zm-22.412-.052c0,6.829,2.609,12.269,7.8,12.269,5.7,0,7.756-5.057,7.756-12.214,0-6.3-2.029-11.855-7.87-11.855C539.091,470.393,536.824,475.611,536.824,482.192Z" fill="#24b4cf"/><path d="M544.348,500.428c-9.288,0-14.832-6.827-14.832-18.26,0-8.831,4.729-17.741,15.293-17.741,10.944,0,14.826,9.6,14.826,17.817C559.635,493.629,553.92,500.428,544.348,500.428Zm.46-35.169c-10.014,0-14.5,8.491-14.5,16.909,0,10.911,5.247,17.428,14.035,17.428,9.074,0,14.489-6.488,14.489-17.351C558.837,474.409,555.164,465.259,544.809,465.259Zm-.186,29.619c-4.979,0-8.195-4.979-8.195-12.686,0-7.763,2.944-12.216,8.082-12.216,5.255,0,8.268,4.473,8.268,12.274C552.777,490.63,550.034,494.878,544.622,494.878Zm-.113-24.069c-6.576,0-7.284,7.962-7.284,11.383,0,5.73,1.944,11.853,7.4,11.853,4.884,0,7.358-3.968,7.358-11.8C551.98,477.975,551.01,470.809,544.509,470.809Z" fill="#24b4cf"/><path d="M565.336,465.3h5.057a.833.833,0,0,1,.813.849v26.8a.836.836,0,0,0,.815.851h12.9a.817.817,0,0,1,.807.961l-.514,4.02a.851.851,0,0,1-.807.737H565.336a.834.834,0,0,1-.813-.849V466.147A.834.834,0,0,1,565.336,465.3Z" fill="#24b4cf"/><path d="M584.4,499.929H565.338a1.243,1.243,0,0,1-1.214-1.267V466.147a1.241,1.241,0,0,1,1.214-1.265h5.055a1.24,1.24,0,0,1,1.212,1.265v26.8a.426.426,0,0,0,.417.435h12.9a1.2,1.2,0,0,1,.92.424,1.31,1.31,0,0,1,.282,1.008l-.514,4.02A1.252,1.252,0,0,1,584.4,499.929Zm-19.066-34.214a.425.425,0,0,0-.417.433v32.515a.424.424,0,0,0,.417.433H584.4a.448.448,0,0,0,.413-.375l.512-4.02a.444.444,0,0,0-.089-.35.411.411,0,0,0-.321-.141h-12.9a1.241,1.241,0,0,1-1.214-1.267v-26.8a.425.425,0,0,0-.415-.433Z" fill="#24b4cf"/><path d="M599.359,489.409a.853.853,0,0,1,.784.631,5.445,5.445,0,0,0,5.787,4.5c3.735,0,5.039-1.693,5.039-4.113,0-3.107-1.8-4.382-6.54-5.788-7.6-2.2-10.19-5.041-10.19-9.986,0-6.343,4.864-9.806,11.111-9.806,7.387,0,10.774,3.766,11.47,8.779a.82.82,0,0,1-.807.987H611.02a.857.857,0,0,1-.786-.638c-.5-2.2-1.76-3.8-4.945-3.8-2.94,0-4.388,1.424-4.388,3.8,0,2.55,1.645,3.275,6.29,4.685,8.369,2.55,10.567,6.043,10.567,10.951,0,5.577-3.551,10.34-12.134,10.34-6.806,0-11.341-3.4-12.115-9.562a.824.824,0,0,1,.807-.979Z" fill="#24b4cf"/><path d="M605.624,500.366c-7.157,0-11.718-3.619-12.511-9.924a1.332,1.332,0,0,1,.286-1.027,1.179,1.179,0,0,1,.918-.422h5.043a1.252,1.252,0,0,1,1.172.95,5.033,5.033,0,0,0,5.4,4.184c3.122,0,4.64-1.209,4.64-3.7,0-2.743-1.4-3.952-6.251-5.391-7.542-2.182-10.48-5.092-10.48-10.386,0-6.21,4.517-10.222,11.51-10.222,6.832,0,11.045,3.244,11.865,9.135a1.335,1.335,0,0,1-.276,1.037,1.18,1.18,0,0,1-.926.426H611.02a1.261,1.261,0,0,1-1.174-.958c-.549-2.41-1.954-3.484-4.557-3.484-1.821,0-3.989.586-3.989,3.385,0,2.174,1.206,2.83,6,4.285,7.711,2.35,10.855,5.639,10.855,11.35C618.157,492.133,617.253,500.366,605.624,500.366Zm-11.307-10.541a.4.4,0,0,0-.319.139.482.482,0,0,0-.093.371c.734,5.846,5.007,9.2,11.72,9.2,7.348,0,11.736-3.712,11.736-9.924,0-4.453-1.748-7.951-10.28-10.551-4.444-1.348-6.578-2.126-6.578-5.084,0-2.681,1.744-4.217,4.787-4.217,2.956,0,4.7,1.348,5.332,4.124a.464.464,0,0,0,.4.319h4.991a.4.4,0,0,0,.323-.139.48.48,0,0,0,.089-.373c-.534-3.844-2.888-8.423-11.075-8.423-6.509,0-10.712,3.685-10.712,9.39,0,4.9,2.682,7.5,9.9,9.585,4.533,1.346,6.832,2.67,6.832,6.192,0,2.066-.942,4.529-5.437,4.529a5.835,5.835,0,0,1-6.173-4.825.457.457,0,0,0-.4-.311Z" fill="#24b4cf"/><path d="M621.8,473.668h1.863a.836.836,0,0,0,.813-.851V467.5a.835.835,0,0,1,.813-.849h4.834a.835.835,0,0,1,.813.849v5.32a.836.836,0,0,0,.813.851h2.787a.834.834,0,0,1,.815.849v3.569a.836.836,0,0,1-.815.849H631.75a.835.835,0,0,0-.813.849V492.2c0,1.776.407,2.509,2.426,2.509.254,0,.436,0,.617-.012a.817.817,0,0,1,.863.84v3.091a.884.884,0,0,1-.633.832,16.207,16.207,0,0,1-3.347.311c-4.785,0-6.388-2.01-6.388-6.817V479.783a.835.835,0,0,0-.813-.849H621.8a.835.835,0,0,1-.813-.849v-3.569A.834.834,0,0,1,621.8,473.668Z" fill="#24b4cf"/><path d="M630.863,500.19c-4.884,0-6.786-2.029-6.786-7.231V479.783a.425.425,0,0,0-.415-.433H621.8a1.24,1.24,0,0,1-1.212-1.265v-3.569a1.24,1.24,0,0,1,1.212-1.265h1.863a.426.426,0,0,0,.415-.435V467.5a1.24,1.24,0,0,1,1.212-1.265h4.834a1.24,1.24,0,0,1,1.212,1.265v5.32a.426.426,0,0,0,.415.435h2.789a1.24,1.24,0,0,1,1.212,1.265v3.569a1.24,1.24,0,0,1-1.212,1.265H631.75a.425.425,0,0,0-.415.433V492.2c0,1.6.28,2.095,2.029,2.095.242,0,.419,0,.591-.012a1.16,1.16,0,0,1,.912.342,1.268,1.268,0,0,1,.373.913v3.093a1.292,1.292,0,0,1-.948,1.236A16.63,16.63,0,0,1,630.863,500.19ZM621.8,474.084a.424.424,0,0,0-.415.433v3.569a.425.425,0,0,0,.415.433h1.863a1.24,1.24,0,0,1,1.212,1.265v13.176c0,4.724,1.567,6.4,5.989,6.4a15.976,15.976,0,0,0,3.259-.3.474.474,0,0,0,.321-.424V495.54a.429.429,0,0,0-.123-.308.417.417,0,0,0-.319-.116c-.186.01-.375.014-.637.014-2.365,0-2.827-1.074-2.827-2.927V479.783a1.24,1.24,0,0,1,1.212-1.265h2.789a.425.425,0,0,0,.415-.433v-3.569a.424.424,0,0,0-.415-.433H631.75a1.242,1.242,0,0,1-1.212-1.267V467.5a.425.425,0,0,0-.415-.433h-4.834a.425.425,0,0,0-.415.433v5.32a1.242,1.242,0,0,1-1.212,1.267Z" fill="#24b4cf"/><path d="M661.718,486.227c0,7.543-3.456,13.772-11.871,13.772-8.649,0-11.658-6.643-11.658-13.627,0-6.44,3.493-13.205,11.986-13.205C658.153,473.167,661.718,479.222,661.718,486.227Zm-16.923-.025c0,5.515,1.825,8.479,5.291,8.479,3.259,0,5.064-2.948,5.064-8.411,0-5.126-1.694-7.786-5.245-7.786C646.614,478.485,644.795,481.478,644.795,486.2Z" fill="#24b4cf"/><path d="M649.847,500.415c-7.548,0-12.057-5.25-12.057-14.043,0-6.78,3.831-13.621,12.384-13.621,5.773,0,11.942,3.54,11.942,13.476C662.117,495.112,657.53,500.415,649.847,500.415Zm.327-26.832c-8.552,0-11.585,6.889-11.585,12.789,0,3.973,1.1,13.211,11.258,13.211,10.353,0,11.472-9.34,11.472-13.356C661.319,480.116,658.391,473.583,650.174,473.583Zm-.089,21.514c-3.668,0-5.689-3.159-5.689-8.9,0-5.092,2.059-8.133,5.511-8.133,3.743,0,5.642,2.759,5.642,8.2C655.548,491.963,653.608,495.1,650.085,495.1Zm-.179-16.2c-3,0-4.713,2.66-4.713,7.3,0,3.679.849,8.063,4.892,8.063,4.059,0,4.666-5.008,4.666-7.993C654.751,481.312,653.166,478.9,649.907,478.9Z" fill="#24b4cf"/><path d="M665.12,482.418c0-3.6,0-6.111-.061-7.875a.828.828,0,0,1,.813-.878h4.747a.838.838,0,0,1,.811.778c.022.288.04.6.054.921.048,1.157.676,1.4,1.414.532a7.541,7.541,0,0,1,5.237-2.6.824.824,0,0,1,.895.851v5.123a.839.839,0,0,1-.78.849c-4.561.114-6.628,2.025-6.628,7.647v10.9a.834.834,0,0,1-.813.849h-4.876a.833.833,0,0,1-.813-.849Z" fill="#24b4cf"/><path d="M670.809,499.929h-4.876a1.242,1.242,0,0,1-1.212-1.267V482.418c0-3.612,0-6.113-.061-7.86a1.291,1.291,0,0,1,.339-.923,1.194,1.194,0,0,1,.873-.385h4.747a1.253,1.253,0,0,1,1.21,1.163c.022.292.038.6.052.934.022.491.155.64.188.652s.22-.012.532-.377a7.991,7.991,0,0,1,5.5-2.741,1.184,1.184,0,0,1,.938.327,1.286,1.286,0,0,1,.389.938v5.123a1.242,1.242,0,0,1-1.168,1.265c-4.549.114-6.239,2.072-6.239,7.233v10.895A1.242,1.242,0,0,1,670.809,499.929Zm-4.937-25.847a.408.408,0,0,0-.3.13.455.455,0,0,0-.115.319c.058,1.76.062,4.266.062,7.887v16.244a.424.424,0,0,0,.415.433h4.876a.424.424,0,0,0,.415-.433V487.767c0-5.6,2.033-7.941,7.016-8.065a.432.432,0,0,0,.391-.433v-5.123a.448.448,0,0,0-.131-.325.426.426,0,0,0-.329-.112,7.13,7.13,0,0,0-4.975,2.465c-.635.745-1.147.7-1.395.609s-.674-.4-.716-1.4c-.014-.319-.032-.623-.052-.9a.433.433,0,0,0-.415-.4Z" fill="#24b4cf"/><path d="M682.128,481.675c0-4-.028-5.92-.063-7.136a.828.828,0,0,1,.813-.874h4.664a.9.9,0,0,1,.881.828l0,.031a.871.871,0,0,0,1.45.6,7.918,7.918,0,0,1,5.547-1.962,6.176,6.176,0,0,1,5.608,2.861.744.744,0,0,0,1.287.1,8.584,8.584,0,0,1,6.7-2.958c4.192,0,7.9,2.321,7.9,9v16.49a.834.834,0,0,1-.815.849h-4.749a.834.834,0,0,1-.813-.849V483.279c0-2.321-.8-4.562-3.551-4.562-3,0-4.227,2.236-4.227,6.078v13.868a.834.834,0,0,1-.815.849h-4.743a.833.833,0,0,1-.813-.849V483.074c0-2.327-1.045-4.314-3.575-4.314-2.817,0-4.259,1.807-4.259,6.359v13.543a.833.833,0,0,1-.813.849h-4.791a.834.834,0,0,1-.815-.849Z" fill="#24b4cf"/><path d="M716.094,499.929h-4.749a1.242,1.242,0,0,1-1.212-1.267V483.279c0-1.89-.547-4.146-3.152-4.146s-3.829,1.8-3.829,5.664v13.866a1.244,1.244,0,0,1-1.214,1.267h-4.743a1.242,1.242,0,0,1-1.212-1.267V483.074c0-1.172-.309-3.9-3.176-3.9-1.908,0-3.86.706-3.86,5.943v13.543a1.242,1.242,0,0,1-1.212,1.267h-4.791a1.243,1.243,0,0,1-1.214-1.267V481.675c0-3.414-.02-5.612-.063-7.121a1.284,1.284,0,0,1,.339-.919,1.179,1.179,0,0,1,.873-.385l4.664,0a1.294,1.294,0,0,1,1.278,1.2.5.5,0,0,0,.3.449.454.454,0,0,0,.49-.087,8.321,8.321,0,0,1,5.81-2.066,6.532,6.532,0,0,1,5.941,3.051.433.433,0,0,0,.315.232.427.427,0,0,0,.337-.18,8.962,8.962,0,0,1,7-3.1c5.271,0,8.3,3.434,8.3,9.421v16.49A1.243,1.243,0,0,1,716.094,499.929ZM706.981,478.3c2.547,0,3.95,1.768,3.95,4.979v15.383a.424.424,0,0,0,.415.433h4.749a.424.424,0,0,0,.417-.433v-16.49c0-7.473-4.7-8.589-7.5-8.589a8.179,8.179,0,0,0-6.392,2.813,1.232,1.232,0,0,1-1,.47,1.216,1.216,0,0,1-.93-.613,5.83,5.83,0,0,0-5.273-2.67,7.563,7.563,0,0,0-5.285,1.859,1.227,1.227,0,0,1-1.309.234,1.323,1.323,0,0,1-.8-1.114.5.5,0,0,0-.486-.478l-4.664,0a.41.41,0,0,0-.3.132.433.433,0,0,0-.113.313c.044,1.519.063,3.724.063,7.148v16.987a.424.424,0,0,0,.417.433h4.791a.424.424,0,0,0,.415-.433V485.119c0-4.623,1.48-6.775,4.658-6.775,2.45,0,3.973,1.813,3.973,4.73v15.588a.422.422,0,0,0,.415.433h4.743a.422.422,0,0,0,.415-.433V484.8C702.353,480.486,703.91,478.3,706.981,478.3Z" fill="#24b4cf"/></g></g></g></svg>