<?xml version="1.0" encoding="utf-8"?>
<!-- Generator: Adobe Illustrator 28.2.0, SVG Export Plug-In . SVG Version: 6.00 Build 0)  -->
<svg version="1.1" id="レイヤー_1" xmlns="http://www.w3.org/2000/svg"
	xmlns:xlink="http://www.w3.org/1999/xlink" x="0px"
	y="0px" width="192.3px" height="50px" viewBox="0 0 192.3 50"
	style="enable-background:new 0 0 192.3 50;width:auto;" xml:space="preserve">
<style type="text/css">
	.header-path{fill:#3E3E3E !important;}
</style>
<path id="パス_15438" class="header-path" d="M20.6,42.2c-6.7-2.4-10.2-9.8-7.8-16.5c1.3-3.7,4.2-6.5,7.8-7.8V6.3L0,26.8h5.2
	c-1.7,10.5,5,20.5,15.4,22.8V42.2z"/>
<path id="パス_15439" class="header-path" d="M26.8,0L26.8,0L26.8,0L26.8,0z"/>
<path id="パス_15440" class="header-path" d="M29.2,10.6V2.3L26.8,0v50c11-1.1,19.1-10.8,18-21.8C44,19.5,37.7,12.4,29.2,10.6 M29.2,42.2
	V17.9c6.7,2.4,10.2,9.8,7.8,16.5C35.8,38.1,32.9,40.9,29.2,42.2"/>
<path id="パス_15441" class="header-path" d="M61.9,21.3l5.7,18.3h-3.4L62.8,35h-6.6l-1.4,4.6h-3.3l5.7-18.3H61.9z M57,32.3h5l-1.2-3.9
	c-0.5-1.8-1-3.6-1.3-4.8h-0.1c-0.2,1.1-0.8,3.1-1.3,4.7L57,32.3z"/>
<path id="パス_15442" class="header-path" d="M82.5,23l-2.1,2.3c-0.9-0.9-2.2-1.4-3.5-1.4c-2.5,0-4.9,1.4-4.9,6.3c0,4.9,1.6,6.9,4.9,6.9
	c0.8,0,1.6-0.1,2.3-0.4v-6.5h3.3v8c-1.3,0.9-3.1,1.6-6.2,1.6c-5,0-7.6-3.1-7.6-9.3c0-6.6,3.7-9.5,8.4-9.5
	C80.4,21.1,81.9,22.4,82.5,23"/>
<path id="パス_15443" class="header-path" d="M85.8,39.7V21.3h10.4v2.7h-7.2V29h6.2v2.7h-6.2v5.2h7.5v2.7L85.8,39.7z"/>
<path id="パス_15444" class="header-path" d="M105.9,39.9c-4.5,0-7.3-2.5-7.3-9.3c0-6.7,3.1-9.5,7.5-9.5c4.5,0,7.3,2.5,7.3,9.3
	C113.5,37.1,110.4,39.9,105.9,39.9 M106.1,37.1c2.4,0,3.9-1.6,3.9-6.6c0-5-1.6-6.7-4.1-6.7c-2.4,0-3.9,1.5-3.9,6.5
	C102,35.4,103.6,37.1,106.1,37.1"/>
<path id="パス_15445" class="header-path" d="M119.6,39.7h-3.3V21.3h3.3V39.7z M125.8,21.3h3.8l-6,9l6.6,9.3H126l-6.1-9.2v-0.1L125.8,21.3
	z"/>
<path id="パス_15446" class="header-path" d="M137.5,39.9c-4.5,0-7.3-2.5-7.3-9.3c0-6.7,3.1-9.5,7.5-9.5c4.5,0,7.3,2.5,7.3,9.3
	C145.1,37.1,142,39.9,137.5,39.9 M137.8,37.1c2.4,0,3.9-1.6,3.9-6.6c0-5-1.6-6.7-4.1-6.7c-2.4,0-3.9,1.5-3.9,6.5
	C133.6,35.4,135.2,37.1,137.8,37.1"/>
<path id="パス_15447" class="header-path" d="M161,23l-2.1,2.3c-0.9-0.9-2.2-1.4-3.5-1.4c-2.5,0-4.9,1.4-4.9,6.3c0,4.9,1.6,6.9,4.9,6.9
	c0.8,0,1.6-0.1,2.3-0.4v-6.5h3.3v8c-1.3,0.9-3.1,1.6-6.2,1.6c-5,0-7.6-3.1-7.6-9.3c0-6.6,3.7-9.5,8.4-9.5
	C158.9,21.1,160.5,22.4,161,23"/>
<path id="パス_15448" class="header-path" d="M177.6,21.3l-6.1,12.1v6.2h-3.3v-6.2l-6.1-12.1h3.7l4.1,8.9h0.1l4.2-8.9L177.6,21.3z"/>
<path id="パス_15449" class="header-path" d="M184.8,39.9c-4.5,0-7.3-2.5-7.3-9.3c0-6.7,3.1-9.5,7.5-9.5c4.5,0,7.3,2.5,7.3,9.3
	C192.3,37.1,189.2,39.9,184.8,39.9 M185,37.1c2.4,0,3.9-1.6,3.9-6.6c0-5-1.6-6.7-4.1-6.7c-2.4,0-3.9,1.5-3.9,6.5
	C180.9,35.4,182.5,37.1,185,37.1"/>
</svg>