<svg xmlns="http://www.w3.org/2000/svg" width="60" height="60" viewBox="0 0 60 60">
  <g id="グループ_1735" data-name="グループ 1735" transform="translate(-183 -460)">
    <rect id="長方形_2932" data-name="長方形 2932" width="60" height="60" transform="translate(183 460)" fill="#555"/>
    <path id="パス_940" data-name="パス 940" d="M1.76-14.76C1.76-6.04,6,.68,16.32.68a14.708,14.708,0,0,0,7-1.6l2.52,2.36a2.329,2.329,0,0,0,1.88.84A2.571,2.571,0,0,0,29.96-.16a1.488,1.488,0,0,0-.52-1.12L26.92-3.64a15.994,15.994,0,0,0,3.96-11.12c0-8.44-5.12-14.72-14.56-14.72S1.76-23.2,1.76-14.76Zm6.56,0c0-5.52,2.64-9.44,8-9.44s8,3.92,8,9.44A12.912,12.912,0,0,1,22.6-7.68L20.32-9.76a2.329,2.329,0,0,0-1.88-.84A2.571,2.571,0,0,0,16.2-8.16a1.488,1.488,0,0,0,.52,1.12l2.24,2.08a8.779,8.779,0,0,1-2.64.36C10.16-4.6,8.32-9.24,8.32-14.76Z" transform="translate(196.24 503.48)" fill="#fff"/>
  </g>
</svg>
